<?xml version="1.0" standalone="no"?>
<!DOCTYPE svg PUBLIC "-//W3C//DTD SVG 20010904//EN"
 "http://www.w3.org/TR/2001/REC-SVG-20010904/DTD/svg10.dtd">
<svg version="1.0" xmlns="http://www.w3.org/2000/svg"
 width="200.000000pt" height="200.000000pt" viewBox="0 0 200.000000 200.000000"
 preserveAspectRatio="xMidYMid meet">

<g transform="translate(0.000000,200.000000) scale(0.100000,-0.100000)"
fill="#000000" stroke="none">
<path d="M841 1790 c-192 -52 -346 -196 -411 -386 -11 -31 -20 -67 -19 -78 0
-12 10 13 23 56 30 102 77 176 161 256 141 135 345 192 529 149 57 -14 64 -25
36 -57 -23 -26 -24 -29 -20 -87 2 -47 -16 -59 -26 -18 -6 24 -24 35 -24 15 0
-25 -30 -6 -40 25 -6 19 -15 35 -20 35 -4 0 -2 -17 5 -37 10 -29 20 -39 44
-46 34 -8 40 -21 15 -31 -27 -10 -59 -7 -80 9 -23 17 -70 20 -80 4 -4 -7 0 -9
14 -5 13 4 36 -1 59 -12 25 -12 51 -18 74 -15 35 5 37 3 49 -32 7 -20 10 -38
8 -39 -1 -2 -19 -6 -40 -9 -28 -4 -43 0 -69 19 -18 13 -41 24 -50 24 -19 0
-71 -39 -52 -40 6 0 15 5 18 10 10 17 51 11 78 -10 17 -14 38 -19 66 -18 23 1
46 -3 52 -9 11 -11 26 -133 17 -133 -3 0 -19 7 -34 15 -32 16 -101 20 -122 6
-28 -17 39 -81 86 -81 20 0 20 0 1 -37 -20 -39 -25 -98 -10 -107 5 -4 25 13
44 36 l35 42 -9 -49 c-14 -74 -41 -165 -50 -171 -5 -3 -6 2 -3 11 10 25 -4 63
-26 70 -17 5 -18 10 -9 27 14 26 5 34 -26 20 -27 -13 -30 -7 -15 34 14 35 7
41 -26 19 -27 -17 -27 -17 -20 6 4 13 10 42 13 64 l6 40 -31 -29 -30 -28 10
41 c13 52 5 61 -28 30 l-27 -24 7 43 c9 57 0 69 -30 41 l-24 -22 0 36 c0 42
-11 47 -33 15 -14 -22 -15 -22 -22 25 -4 26 -11 49 -15 52 -5 3 -17 -13 -27
-35 -21 -47 -28 -49 -36 -12 -4 15 -11 34 -17 42 -9 13 -12 12 -25 -4 -8 -11
-15 -29 -15 -40 -1 -20 -2 -20 -14 -3 -19 25 -26 21 -26 -13 0 -16 -2 -30 -4
-30 -2 0 -23 9 -47 20 -85 38 -97 16 -33 -58 l34 -40 -30 -12 c-38 -16 -38
-27 1 -35 30 -7 30 -7 10 -22 -30 -21 -16 -36 26 -28 l36 6 -22 -27 c-31 -39
-26 -45 21 -28 l43 15 -34 -35 c-19 -20 -32 -38 -29 -41 3 -3 21 2 41 10 49
20 51 19 28 -14 -34 -48 -27 -60 23 -41 l25 9 -21 -35 c-25 -42 -19 -50 21
-30 40 21 45 20 27 -6 -28 -39 -21 -50 20 -33 47 19 47 19 30 -7 -23 -37 -31
-72 -15 -65 51 20 49 21 43 -12 -4 -17 -2 -31 3 -31 15 0 70 56 88 90 l17 34
13 -31 c7 -17 21 -65 30 -107 l17 -76 -33 -45 c-19 -24 -42 -45 -52 -45 -32 0
-141 41 -197 75 -64 39 -156 131 -195 194 -52 85 -77 168 -85 286 l-7 110 -1
-85 c-5 -257 156 -484 405 -571 84 -30 221 -36 316 -15 373 83 573 495 407
840 -65 137 -207 262 -347 307 -99 31 -245 35 -342 9z m392 -41 c12 -7 23 -13
25 -14 2 -2 -8 -15 -21 -29 -14 -15 -28 -45 -32 -69 -3 -23 -17 -64 -29 -92
l-23 -50 -7 36 c-3 20 -2 47 2 60 5 13 7 39 5 57 -4 25 1 42 22 72 31 45 29
44 58 29z m114 -68 c107 -84 184 -204 218 -336 76 -298 -130 -627 -437 -700
-35 -8 -79 -15 -99 -15 -36 0 -37 1 -42 43 -4 35 1 51 28 97 18 30 42 74 54
97 19 39 55 72 93 86 12 4 36 -9 72 -38 64 -53 92 -65 150 -65 l43 0 -33 69
c-25 52 -40 72 -61 79 l-28 10 28 1 c31 1 67 -30 67 -59 0 -24 15 -27 24 -4
10 25 7 93 -4 115 -16 29 -67 51 -119 51 -40 0 -50 -5 -76 -34 -16 -18 -46
-45 -65 -59 l-35 -27 22 87 c12 47 22 101 22 119 1 36 7 39 31 17 8 -8 32 -21
53 -30 36 -15 37 -15 37 5 0 26 -23 72 -45 90 -14 11 -12 15 18 36 63 42 88
104 43 104 -37 0 -74 -17 -101 -46 -14 -15 -27 -25 -30 -22 -3 2 -5 33 -6 69
-1 52 4 75 25 117 14 28 26 65 26 82 0 35 23 86 42 93 26 11 37 6 85 -32z
m-648 -298 c12 -47 6 -123 -9 -123 -22 0 -38 105 -24 157 9 32 20 21 33 -34z
m51 -112 c-11 -23 -23 -41 -27 -41 -13 0 5 128 23 160 l19 35 3 -57 c2 -42 -2
-67 -18 -97z m546 94 c-15 -23 -83 -65 -106 -65 -35 0 39 86 84 98 37 10 44 0
22 -33z m-646 -39 c0 -20 0 -20 -15 0 -8 10 -14 30 -14 44 l0 25 14 -25 c8
-14 14 -34 15 -44z m-69 23 c32 -22 52 -47 55 -65 3 -17 1 -17 -39 0 -33 13
-87 68 -87 87 0 13 38 1 71 -22z m234 -68 c-9 -27 -25 -57 -35 -66 -19 -17
-20 -17 -20 2 0 27 27 102 48 133 l17 25 3 -23 c2 -12 -4 -44 -13 -71z m311
44 c32 -21 30 -35 -3 -36 -50 -2 -68 2 -91 24 -17 16 -19 23 -10 29 18 12 75
2 104 -17z m-250 -32 c-5 -42 -48 -133 -63 -133 -3 0 -3 18 1 41 6 40 51 139
63 139 3 0 3 -21 -1 -47z m40 -66 c-9 -24 -28 -59 -41 -77 -21 -29 -25 -31
-25 -13 0 28 23 82 50 116 30 38 37 27 16 -26z m333 27 c12 -15 21 -35 21 -46
0 -17 -2 -18 -29 -3 -28 14 -61 51 -61 67 0 19 50 6 69 -18z m-644 10 c26 -11
0 -21 -41 -16 -25 3 -32 7 -23 13 17 10 41 11 64 3z m541 -25 c-6 -34 -42 -89
-57 -89 -11 0 -11 7 1 49 18 62 68 98 56 40z m-482 0 c-9 -15 -69 -39 -96 -39
-21 1 -21 2 7 17 17 9 44 20 60 24 17 4 31 7 33 8 2 1 0 -4 -4 -10z m303 -41
c-9 -33 -64 -118 -77 -118 -16 0 -3 37 37 99 34 54 50 61 40 19z m-268 6 c-17
-20 -87 -56 -101 -52 -16 6 72 68 95 68 17 0 17 -2 6 -16z m30 -15 c-22 -14
-33 -10 -19 6 7 8 17 12 22 9 6 -4 5 -10 -3 -15z m67 -16 c-11 -11 -17 4 -9
23 7 18 8 18 11 1 2 -10 1 -21 -2 -24z m-72 -18 c-22 -18 -90 -55 -100 -55
-16 0 24 34 65 55 49 25 67 25 35 0z m46 5 c0 -5 -4 -10 -10 -10 -5 0 -10 5
-10 10 0 6 5 10 10 10 6 0 10 -4 10 -10z m57 -32 c-3 -8 -6 -5 -6 6 -1 11 2
17 5 13 3 -3 4 -12 1 -19z m175 0 c-6 -23 -76 -98 -92 -98 -15 0 12 48 49 88
35 37 52 41 43 10z m-248 -19 c-33 -34 -92 -74 -100 -66 -8 7 57 78 80 87 43
18 50 10 20 -21z m45 0 c-22 -14 -33 -10 -19 6 7 8 17 12 22 9 6 -4 5 -10 -3
-15z m63 -21 c-7 -7 -12 -8 -12 -2 0 14 12 26 19 19 2 -3 -1 -11 -7 -17z m188
7 c0 -12 -76 -88 -102 -101 -33 -17 -34 -13 -11 23 25 38 113 99 113 78z m309
-6 c35 -12 61 -53 61 -96 l0 -28 -23 26 c-29 35 -44 39 -100 28 -73 -13 -107
8 -44 29 l32 10 -30 1 -30 2 24 19 c26 22 63 25 110 9z m-549 -7 c0 -11 -47
-54 -83 -77 -47 -30 -44 -6 5 41 43 40 78 56 78 36z m34 -11 c3 -5 -3 -11 -13
-14 -14 -3 -18 -1 -14 9 6 16 19 18 27 5z m228 -28 c18 -16 25 -43 10 -43 -4
0 -13 5 -20 12 -9 9 -12 9 -12 1 0 -7 5 -15 11 -19 8 -4 7 -9 -2 -15 -19 -12
-32 -11 -54 4 -17 13 -17 15 10 45 33 37 33 37 57 15z m-231 -12 c-15 -28 -79
-81 -98 -81 -21 0 26 53 72 81 37 23 38 23 26 0z m29 -6 c0 -8 -4 -15 -10 -15
-5 0 -7 7 -4 15 4 8 8 15 10 15 2 0 4 -7 4 -15z m354 -18 c17 -13 17 -14 -10
-24 -16 -6 -44 -16 -63 -22 l-34 -11 19 22 c42 50 59 56 88 35z m-351 -24 c-7
-22 -62 -81 -86 -94 -17 -9 -16 -7 2 29 27 53 100 109 84 65z m466 -9 c22 -16
66 -102 57 -111 -3 -3 -24 -2 -47 2 -29 5 -55 20 -86 48 -45 41 -51 57 -13 37
11 -6 26 -9 33 -7 7 3 -3 11 -21 17 -25 9 -30 15 -20 21 21 14 72 10 97 -7z
m-343 -5 c4 -7 22 -9 45 -6 22 3 42 1 45 -4 7 -11 -31 -96 -73 -163 l-31 -49
-12 59 c-7 32 -21 81 -31 109 -14 38 -16 51 -6 57 18 11 55 10 63 -3z m-96
-14 c0 -15 -31 -62 -54 -84 -34 -32 -33 -16 4 42 25 40 50 61 50 42z m67 -322
c-3 -2 -15 -3 -26 -1 l-21 3 22 32 23 32 3 -30 c2 -17 1 -33 -1 -36z"/>
<path d="M1030 528 c-12 -23 -32 -51 -44 -60 -11 -10 -15 -18 -9 -18 10 0 10
-6 1 -24 -19 -44 -6 -54 67 -51 62 2 68 4 105 40 41 40 60 43 41 7 -17 -33
-13 -52 11 -52 20 0 21 1 4 13 -15 11 -16 17 -5 40 8 18 9 34 3 48 -9 20 -11
19 -38 -21 -16 -24 -42 -48 -62 -56 -41 -17 -65 -9 -35 13 21 14 29 53 11 53
-15 0 -50 -38 -50 -54 0 -12 -20 -26 -36 -26 -8 0 -4 42 6 61 6 11 25 26 43
34 21 10 24 14 10 11 -27 -5 -27 -5 -8 41 22 52 10 53 -15 1z m50 -92 c0 -3
-4 -8 -10 -11 -5 -3 -10 -1 -10 4 0 6 5 11 10 11 6 0 10 -2 10 -4z"/>
<path d="M799 424 c-10 -17 -19 -36 -19 -43 0 -22 17 -10 33 24 9 19 24 35 32
35 13 0 14 -4 5 -21 -7 -11 -9 -27 -6 -34 7 -18 77 -17 99 2 20 19 23 73 4 73
-16 0 -57 -42 -57 -58 0 -7 -7 -12 -15 -12 -13 0 -15 7 -10 34 6 32 5 34 -20
32 -18 -1 -33 -11 -46 -32z m151 2 c0 -17 -28 -41 -37 -32 -10 9 16 58 27 51
6 -3 10 -12 10 -19z"/>
</g>
</svg>
